<svg width="146" height="20" viewBox="0 0 146 20" fill="none" xmlns="http://www.w3.org/2000/svg">
<path d="M1 1L18 19H145" stroke="white" stroke-linecap="round"/>
<path d="M6 1H13L30 17H23L6 1Z" fill="#D9D9D9"/>
<path d="M18 1H25L42 17H35L18 1Z" fill="#D9D9D9"/>
<path d="M30 1H37L54 17H47L30 1Z" fill="#D9D9D9"/>
<path d="M42 1H49L66 17H59L42 1Z" fill="#D9D9D9"/>
<path d="M54 1H61L78 17H71L54 1Z" fill="#D9D9D9"/>
<path d="M66 1H73L90 17H83L66 1Z" fill="#D9D9D9"/>
<path d="M78 1H85L102 17H95L78 1Z" fill="#D9D9D9"/>
<path d="M90 1H97L114 17H107L90 1Z" fill="#D9D9D9"/>
<path d="M102 1H109L126 17H119L102 1Z" fill="#D9D9D9"/>
</svg>
