<svg width="146" height="20" viewBox="0 0 146 20" fill="none" xmlns="http://www.w3.org/2000/svg">
<path d="M145 1L128 19H1" stroke="white" stroke-linecap="round"/>
<path d="M140 1H133L116 17H123L140 1Z" fill="#D9D9D9"/>
<path d="M128 1H121L104 17H111L128 1Z" fill="#D9D9D9"/>
<path d="M116 1H109L92 17H99L116 1Z" fill="#D9D9D9"/>
<path d="M104 1H97L80 17H87L104 1Z" fill="#D9D9D9"/>
<path d="M92 1H85L68 17H75L92 1Z" fill="#D9D9D9"/>
<path d="M80 1H73L56 17H63L80 1Z" fill="#D9D9D9"/>
<path d="M68 1H61L44 17H51L68 1Z" fill="#D9D9D9"/>
<path d="M56 1H49L32 17H39L56 1Z" fill="#D9D9D9"/>
<path d="M44 1H37L20 17H27L44 1Z" fill="#D9D9D9"/>
</svg>
