<svg width="22" height="196" viewBox="0 0 22 196" fill="none" xmlns="http://www.w3.org/2000/svg">
<path d="M16.3219 6.1204L16.8142 7.28459L3.22113 8.1688L2.72881 7.00461L16.3219 6.1204ZM17.8616 9.76135L18.3539 10.9255L4.76084 11.8097L4.26852 10.6456L17.8616 9.76135Z" fill="white"/>
<path d="M7.19131 31.1956H12.3433C13.1326 31.1956 13.762 30.9983 14.2313 30.6036C14.7113 30.2089 14.9513 29.6809 14.9513 29.0196C14.9513 28.3476 14.7113 27.8196 14.2313 27.4356C13.762 27.0409 13.1326 26.8436 12.3433 26.8436H6.98331L7.65531 26.0436V37.5316H6.15131V25.5316H12.3913C13.202 25.5316 13.9113 25.6809 14.5193 25.9796C15.1273 26.2676 15.602 26.6729 15.9433 27.1956C16.2953 27.7183 16.4713 28.3263 16.4713 29.0196C16.4713 29.7023 16.2953 30.3049 15.9433 30.8276C15.602 31.3503 15.1273 31.7609 14.5193 32.0596C13.9113 32.3476 13.202 32.4916 12.3913 32.4916H7.19131V31.1956ZM9.84731 31.9156H11.7033L16.7113 37.5316H14.8393L9.84731 31.9156ZM5.70294 48.1316C5.78827 47.4063 6.05494 46.7556 6.50294 46.1796C6.9616 45.6036 7.59094 45.1503 8.39094 44.8196C9.19094 44.4889 10.1403 44.3236 11.2389 44.3236C12.2416 44.3236 13.1056 44.4569 13.8309 44.7236C14.5563 44.9903 15.1163 45.3636 15.5109 45.8436C15.9163 46.3236 16.1189 46.8889 16.1189 47.5396C16.1189 48.0943 15.9536 48.5956 15.6229 49.0436C15.2923 49.4809 14.8069 49.8276 14.1669 50.0836C13.5269 50.3396 12.7429 50.4676 11.8149 50.4676V50.1796C12.7643 50.1476 13.5803 50.2489 14.2629 50.4836C14.9456 50.7076 15.4683 51.0436 15.8309 51.4916C16.2043 51.9289 16.3909 52.4623 16.3909 53.0916C16.3909 53.8063 16.1829 54.4409 15.7669 54.9956C15.3509 55.5396 14.7429 55.9663 13.9429 56.2756C13.1536 56.5849 12.1829 56.7396 11.0309 56.7396C9.91094 56.7396 8.93494 56.5743 8.10294 56.2436C7.27094 55.9129 6.62027 55.4489 6.15094 54.8516C5.6816 54.2543 5.41494 53.5609 5.35094 52.7716H6.87094C6.9776 53.6249 7.38294 54.2916 8.08694 54.7716C8.8016 55.2409 9.78294 55.4756 11.0309 55.4756C12.2683 55.4756 13.2123 55.2623 13.8629 54.8356C14.5243 54.3983 14.8549 53.7903 14.8549 53.0116C14.8549 52.5636 14.7429 52.1849 14.5189 51.8756C14.2949 51.5663 13.9323 51.3316 13.4309 51.1716C12.9296 51.0009 12.2736 50.9156 11.4629 50.9156H9.22294V49.7476H11.4629C12.5296 49.7476 13.3136 49.5556 13.8149 49.1716C14.3269 48.7769 14.5829 48.2916 14.5829 47.7156C14.5829 47.0223 14.2843 46.4943 13.6869 46.1316C13.0896 45.7689 12.2469 45.5876 11.1589 45.5876C10.0389 45.5876 9.13227 45.8116 8.43894 46.2596C7.75627 46.6969 7.35094 47.3209 7.22294 48.1316H5.70294ZM17.5573 70.9076C17.4506 71.8569 17.1146 72.6996 16.5493 73.4356C15.9839 74.1609 15.2426 74.7263 14.3253 75.1316C13.4186 75.5369 12.3786 75.7396 11.2053 75.7396C9.88258 75.7396 8.71992 75.4783 7.71725 74.9556C6.72525 74.4329 5.95192 73.7076 5.39725 72.7796C4.84258 71.8409 4.56525 70.7583 4.56525 69.5316C4.56525 68.2943 4.84258 67.2116 5.39725 66.2836C5.95192 65.3556 6.72525 64.6303 7.71725 64.1076C8.71992 63.5849 9.88258 63.3236 11.2053 63.3236C12.3786 63.3236 13.4186 63.5263 14.3253 63.9316C15.2426 64.3369 15.9839 64.9023 16.5493 65.6276C17.1146 66.3423 17.4506 67.1796 17.5573 68.1396H16.0373C15.9093 67.4356 15.6319 66.8276 15.2053 66.3156C14.7786 65.7929 14.2239 65.3929 13.5413 65.1156C12.8586 64.8276 12.0746 64.6836 11.1893 64.6836C10.1546 64.6836 9.25325 64.8809 8.48525 65.2756C7.72792 65.6703 7.14125 66.2303 6.72525 66.9556C6.30925 67.6809 6.10125 68.5396 6.10125 69.5316C6.10125 70.5129 6.30925 71.3663 6.72525 72.0916C7.14125 72.8169 7.72792 73.3823 8.48525 73.7876C9.25325 74.1823 10.1546 74.3796 11.1893 74.3796C12.0746 74.3796 12.8586 74.2409 13.5413 73.9636C14.2239 73.6756 14.7786 73.2756 15.2053 72.7636C15.6319 72.2409 15.9093 71.6223 16.0373 70.9076H17.5573ZM14.4601 82.5316V94.5316H12.9561V83.1236H13.6761L6.49213 91.1556L6.47613 90.5956H16.7961V91.8436H5.19613V90.7396L12.5561 82.5316H14.4601ZM6.97969 108.492C6.97969 109.281 7.13969 109.969 7.45969 110.556C7.79035 111.132 8.25969 111.58 8.86769 111.9C9.47569 112.22 10.1904 112.38 11.0117 112.38C11.8437 112.38 12.5584 112.22 13.1557 111.9C13.753 111.58 14.217 111.132 14.5477 110.556C14.8784 109.969 15.0437 109.281 15.0437 108.492V101.532H16.5477V108.524C16.5477 109.558 16.313 110.47 15.8437 111.26C15.3744 112.038 14.7237 112.646 13.8917 113.084C13.0704 113.521 12.1104 113.74 11.0117 113.74C9.91302 113.74 8.94769 113.521 8.11569 113.084C7.28369 112.646 6.63302 112.038 6.16369 111.26C5.70502 110.47 5.47569 109.558 5.47569 108.524V101.532H6.97969V108.492ZM13.0293 120.532V132.532H11.5253V120.9L12.4693 121.716L7.52531 122.596V121.364L11.8933 120.532H13.0293ZM10.2592 140.252H11.7632V151.532H10.2592V140.252ZM5.10719 139.532H16.9152V140.86H5.10719V139.532ZM6.97731 158.532H15.4253V159.78H7.52131L8.14531 159.316L7.47331 164.74L6.96131 164.756C7.22798 164.372 7.57998 164.02 8.01731 163.7C8.46531 163.369 8.98798 163.102 9.58531 162.9C10.1826 162.697 10.8386 162.596 11.5533 162.596C12.6093 162.596 13.4946 162.777 14.2093 163.14C14.924 163.502 15.4626 163.988 15.8253 164.596C16.1986 165.204 16.3853 165.886 16.3853 166.644C16.3853 167.444 16.1666 168.153 15.7293 168.772C15.292 169.38 14.6786 169.86 13.8893 170.212C13.1 170.564 12.172 170.74 11.1053 170.74C10.0173 170.74 9.07865 170.58 8.28931 170.26C7.49998 169.929 6.87065 169.486 6.40131 168.932C5.94265 168.377 5.64931 167.753 5.52131 167.06H7.04131C7.21198 167.796 7.64398 168.382 8.33731 168.82C9.04131 169.257 9.96398 169.476 11.1053 169.476C11.8626 169.476 12.5186 169.358 13.0733 169.124C13.6386 168.889 14.076 168.564 14.3853 168.148C14.7053 167.721 14.8653 167.22 14.8653 166.644C14.8653 166.078 14.7266 165.588 14.4493 165.172C14.172 164.745 13.772 164.414 13.2493 164.18C12.7373 163.945 12.108 163.828 11.3613 163.828C10.7106 163.828 10.124 163.918 9.60131 164.1C9.07865 164.27 8.62531 164.489 8.24131 164.756C7.85731 165.022 7.54265 165.305 7.29731 165.604H6.11331L6.97731 158.532Z" fill="white"/>
<path d="M5.67814 188.943L5.18582 187.779L18.7789 186.895L19.2712 188.059L5.67814 188.943ZM4.13843 185.302L3.64611 184.138L17.2392 183.254L17.7315 184.418L4.13843 185.302Z" fill="white"/>
</svg>
