<svg width="1284" height="820" viewBox="0 0 1284 820" fill="none" xmlns="http://www.w3.org/2000/svg">
<g filter="url(#filter0_d_1514_698)">
<mask id="path-1-outside-1_1514_698" maskUnits="userSpaceOnUse" x="163" y="284" width="951" height="293" fill="black">
<rect fill="white" x="163" y="284" width="951" height="293"/>
<path d="M412.361 291.75V570H342.984V322.172H365.244L217.215 486.154L216.473 463.894H458.365V516.205H164.904V466.862L323.692 291.75H412.361ZM640.045 575.936C608.634 575.936 581.427 569.876 558.425 557.757C535.423 545.638 517.615 528.819 505.001 507.301C492.387 485.536 486.08 460.06 486.08 430.875C486.08 401.937 492.387 376.585 505.001 354.82C517.615 333.055 535.423 316.112 558.425 303.993C581.427 291.874 608.634 285.814 640.045 285.814C671.209 285.814 698.292 291.874 721.294 303.993C744.296 316.112 762.104 333.055 774.718 354.82C787.332 376.338 793.639 401.69 793.639 430.875C793.639 459.813 787.332 485.165 774.718 506.93C762.104 528.695 744.296 545.638 721.294 557.757C698.292 569.876 671.209 575.936 640.045 575.936ZM640.045 518.802C666.51 518.802 687.038 511.135 701.631 495.8C716.471 480.465 723.891 458.824 723.891 430.875C723.891 402.926 716.471 381.285 701.631 365.95C687.038 350.615 666.51 342.948 640.045 342.948C613.58 342.948 592.928 350.615 578.088 365.95C563.248 381.285 555.828 402.926 555.828 430.875C555.828 458.824 563.248 480.465 578.088 495.8C592.928 511.135 613.58 518.802 640.045 518.802ZM1066.32 291.75V570H996.944V322.172H1019.2L871.175 486.154L870.433 463.894H1112.32V516.205H818.864V466.862L977.652 291.75H1066.32Z"/>
</mask>
<path d="M412.361 291.75V570H342.984V322.172H365.244L217.215 486.154L216.473 463.894H458.365V516.205H164.904V466.862L323.692 291.75H412.361ZM640.045 575.936C608.634 575.936 581.427 569.876 558.425 557.757C535.423 545.638 517.615 528.819 505.001 507.301C492.387 485.536 486.08 460.06 486.08 430.875C486.08 401.937 492.387 376.585 505.001 354.82C517.615 333.055 535.423 316.112 558.425 303.993C581.427 291.874 608.634 285.814 640.045 285.814C671.209 285.814 698.292 291.874 721.294 303.993C744.296 316.112 762.104 333.055 774.718 354.82C787.332 376.338 793.639 401.69 793.639 430.875C793.639 459.813 787.332 485.165 774.718 506.93C762.104 528.695 744.296 545.638 721.294 557.757C698.292 569.876 671.209 575.936 640.045 575.936ZM640.045 518.802C666.51 518.802 687.038 511.135 701.631 495.8C716.471 480.465 723.891 458.824 723.891 430.875C723.891 402.926 716.471 381.285 701.631 365.95C687.038 350.615 666.51 342.948 640.045 342.948C613.58 342.948 592.928 350.615 578.088 365.95C563.248 381.285 555.828 402.926 555.828 430.875C555.828 458.824 563.248 480.465 578.088 495.8C592.928 511.135 613.58 518.802 640.045 518.802ZM1066.32 291.75V570H996.944V322.172H1019.2L871.175 486.154L870.433 463.894H1112.32V516.205H818.864V466.862L977.652 291.75H1066.32Z" fill="#D9D9D9" fill-opacity="0.01" shape-rendering="crispEdges"/>
<path d="M412.361 291.75H413.361V290.75H412.361V291.75ZM412.361 570V571H413.361V570H412.361ZM342.984 570H341.984V571H342.984V570ZM342.984 322.172V321.172H341.984V322.172H342.984ZM365.244 322.172L365.986 322.842L367.494 321.172H365.244V322.172ZM217.215 486.154L216.216 486.187L216.298 488.662L217.957 486.824L217.215 486.154ZM216.473 463.894V462.894H215.439L215.474 463.927L216.473 463.894ZM458.365 463.894H459.365V462.894H458.365V463.894ZM458.365 516.205V517.205H459.365V516.205H458.365ZM164.904 516.205H163.904V517.205H164.904V516.205ZM164.904 466.862L164.163 466.19L163.904 466.476V466.862H164.904ZM323.692 291.75V290.75H323.249L322.951 291.078L323.692 291.75ZM412.361 291.75H411.361V570H412.361H413.361V291.75H412.361ZM412.361 570V569H342.984V570V571H412.361V570ZM342.984 570H343.984V322.172H342.984H341.984V570H342.984ZM342.984 322.172V323.172H365.244V322.172V321.172H342.984V322.172ZM365.244 322.172L364.502 321.502L216.473 485.484L217.215 486.154L217.957 486.824L365.986 322.842L365.244 322.172ZM217.215 486.154L218.214 486.121L217.472 463.861L216.473 463.894L215.474 463.927L216.216 486.187L217.215 486.154ZM216.473 463.894V464.894H458.365V463.894V462.894H216.473V463.894ZM458.365 463.894H457.365V516.205H458.365H459.365V463.894H458.365ZM458.365 516.205V515.205H164.904V516.205V517.205H458.365V516.205ZM164.904 516.205H165.904V466.862H164.904H163.904V516.205H164.904ZM164.904 466.862L165.645 467.534L324.433 292.422L323.692 291.75L322.951 291.078L164.163 466.19L164.904 466.862ZM323.692 291.75V292.75H412.361V291.75V290.75H323.692V291.75ZM558.425 557.757L557.959 558.642L557.959 558.642L558.425 557.757ZM505.001 507.301L504.136 507.802L504.138 507.807L505.001 507.301ZM505.001 354.82L504.136 354.319L504.136 354.319L505.001 354.82ZM558.425 303.993L558.891 304.878L558.891 304.878L558.425 303.993ZM721.294 303.993L720.828 304.878L720.828 304.878L721.294 303.993ZM774.718 354.82L773.853 355.321L773.855 355.326L774.718 354.82ZM774.718 506.93L775.583 507.431L775.583 507.431L774.718 506.93ZM721.294 557.757L721.76 558.642L721.76 558.642L721.294 557.757ZM701.631 495.8L700.912 495.105L700.906 495.111L701.631 495.8ZM701.631 365.95L700.906 366.639L700.912 366.645L701.631 365.95ZM578.088 365.95L578.806 366.645L578.806 366.645L578.088 365.95ZM578.088 495.8L577.369 496.495L577.369 496.495L578.088 495.8ZM640.045 575.936V574.936C608.762 574.936 581.722 568.902 558.891 556.872L558.425 557.757L557.959 558.642C581.131 570.851 608.505 576.936 640.045 576.936V575.936ZM558.425 557.757L558.891 556.872C536.047 544.836 518.379 528.145 505.864 506.795L505.001 507.301L504.138 507.807C516.851 529.493 534.799 546.439 557.959 558.642L558.425 557.757ZM505.001 507.301L505.866 506.8C493.354 485.21 487.08 459.913 487.08 430.875H486.08H485.08C485.08 460.208 491.42 485.862 504.136 507.802L505.001 507.301ZM486.08 430.875H487.08C487.08 402.086 493.353 376.913 505.866 355.321L505.001 354.82L504.136 354.319C491.421 376.258 485.08 401.788 485.08 430.875H486.08ZM505.001 354.82L505.866 355.321C518.382 333.724 536.05 316.912 558.891 304.878L558.425 303.993L557.959 303.108C534.796 315.312 516.847 332.385 504.136 354.319L505.001 354.82ZM558.425 303.993L558.891 304.878C581.722 292.848 608.762 286.814 640.045 286.814V285.814V284.814C608.505 284.814 581.131 290.899 557.959 303.108L558.425 303.993ZM640.045 285.814V286.814C671.079 286.814 697.995 292.848 720.828 304.878L721.294 303.993L721.76 303.108C698.588 290.9 671.339 284.814 640.045 284.814V285.814ZM721.294 303.993L720.828 304.878C743.669 316.912 761.336 333.724 773.853 355.321L774.718 354.82L775.583 354.319C762.871 332.385 744.923 315.312 721.76 303.108L721.294 303.993ZM774.718 354.82L773.855 355.326C786.365 376.666 792.639 401.837 792.639 430.875H793.639H794.639C794.639 401.542 788.299 376.01 775.581 354.314L774.718 354.82ZM793.639 430.875H792.639C792.639 459.664 786.366 484.837 773.853 506.429L774.718 506.93L775.583 507.431C788.298 485.492 794.639 459.962 794.639 430.875H793.639ZM774.718 506.93L773.853 506.429C761.336 528.026 743.669 544.838 720.828 556.872L721.294 557.757L721.76 558.642C744.923 546.438 762.871 529.365 775.583 507.431L774.718 506.93ZM721.294 557.757L720.828 556.872C697.995 568.902 671.079 574.936 640.045 574.936V575.936V576.936C671.339 576.936 698.588 570.85 721.76 558.642L721.294 557.757ZM640.045 518.802V519.802C666.71 519.802 687.529 512.07 702.355 496.489L701.631 495.8L700.906 495.111C686.548 510.2 666.309 517.802 640.045 517.802V518.802ZM701.631 495.8L702.349 496.495C717.421 480.922 724.891 459 724.891 430.875H723.891H722.891C722.891 458.647 715.521 480.009 700.912 495.105L701.631 495.8ZM723.891 430.875H724.891C724.891 402.75 717.421 380.828 702.349 365.255L701.631 365.95L700.912 366.645C715.521 381.741 722.891 403.103 722.891 430.875H723.891ZM701.631 365.95L702.355 365.261C687.529 349.68 666.71 341.948 640.045 341.948V342.948V343.948C666.309 343.948 686.548 351.55 700.906 366.639L701.631 365.95ZM640.045 342.948V341.948C613.379 341.948 592.441 349.681 577.369 365.255L578.088 365.95L578.806 366.645C593.415 351.55 613.782 343.948 640.045 343.948V342.948ZM578.088 365.95L577.369 365.255C562.298 380.828 554.828 402.75 554.828 430.875H555.828H556.828C556.828 403.103 564.198 381.741 578.806 366.645L578.088 365.95ZM555.828 430.875H554.828C554.828 459 562.298 480.922 577.369 496.495L578.088 495.8L578.806 495.105C564.198 480.009 556.828 458.647 556.828 430.875H555.828ZM578.088 495.8L577.369 496.495C592.441 512.069 613.379 519.802 640.045 519.802V518.802V517.802C613.782 517.802 593.415 510.2 578.806 495.105L578.088 495.8ZM1066.32 291.75H1067.32V290.75H1066.32V291.75ZM1066.32 570V571H1067.32V570H1066.32ZM996.944 570H995.944V571H996.944V570ZM996.944 322.172V321.172H995.944V322.172H996.944ZM1019.2 322.172L1019.95 322.842L1021.45 321.172H1019.2V322.172ZM871.175 486.154L870.176 486.187L870.258 488.662L871.917 486.824L871.175 486.154ZM870.433 463.894V462.894H869.399L869.434 463.927L870.433 463.894ZM1112.32 463.894H1113.32V462.894H1112.32V463.894ZM1112.32 516.205V517.205H1113.32V516.205H1112.32ZM818.864 516.205H817.864V517.205H818.864V516.205ZM818.864 466.862L818.123 466.19L817.864 466.476V466.862H818.864ZM977.652 291.75V290.75H977.209L976.911 291.078L977.652 291.75ZM1066.32 291.75H1065.32V570H1066.32H1067.32V291.75H1066.32ZM1066.32 570V569H996.944V570V571H1066.32V570ZM996.944 570H997.944V322.172H996.944H995.944V570H996.944ZM996.944 322.172V323.172H1019.2V322.172V321.172H996.944V322.172ZM1019.2 322.172L1018.46 321.502L870.433 485.484L871.175 486.154L871.917 486.824L1019.95 322.842L1019.2 322.172ZM871.175 486.154L872.174 486.121L871.432 463.861L870.433 463.894L869.434 463.927L870.176 486.187L871.175 486.154ZM870.433 463.894V464.894H1112.32V463.894V462.894H870.433V463.894ZM1112.32 463.894H1111.32V516.205H1112.32H1113.32V463.894H1112.32ZM1112.32 516.205V515.205H818.864V516.205V517.205H1112.32V516.205ZM818.864 516.205H819.864V466.862H818.864H817.864V516.205H818.864ZM818.864 466.862L819.605 467.534L978.393 292.422L977.652 291.75L976.911 291.078L818.123 466.19L818.864 466.862ZM977.652 291.75V292.75H1066.32V291.75V290.75H977.652V291.75Z" fill="#14E2DE" mask="url(#path-1-outside-1_1514_698)"/>
</g>
<rect width="1280" height="820" fill="url(#paint0_linear_1514_698)"/>
<defs>
<filter id="filter0_d_1514_698" x="7.80405" y="128.714" width="1275.62" height="618.322" filterUnits="userSpaceOnUse" color-interpolation-filters="sRGB">
<feFlood flood-opacity="0" result="BackgroundImageFix"/>
<feColorMatrix in="SourceAlpha" type="matrix" values="0 0 0 0 0 0 0 0 0 0 0 0 0 0 0 0 0 0 127 0" result="hardAlpha"/>
<feOffset dx="7" dy="7"/>
<feGaussianBlur stdDeviation="81.55"/>
<feComposite in2="hardAlpha" operator="out"/>
<feColorMatrix type="matrix" values="0 0 0 0 0.0784314 0 0 0 0 0.886275 0 0 0 0 0.870588 0 0 0 0.37 0"/>
<feBlend mode="normal" in2="BackgroundImageFix" result="effect1_dropShadow_1514_698"/>
<feBlend mode="normal" in="SourceGraphic" in2="effect1_dropShadow_1514_698" result="shape"/>
</filter>
<linearGradient id="paint0_linear_1514_698" x1="640" y1="0" x2="640" y2="820" gradientUnits="userSpaceOnUse">
<stop stop-opacity="0.26"/>
<stop offset="1" stop-color="#111111"/>
</linearGradient>
</defs>
</svg>
