<svg width="709" height="474" viewBox="0 0 709 474" fill="none" xmlns="http://www.w3.org/2000/svg">
<g filter="url(#filter0_d_1546_656)">
<mask id="path-1-outside-1_1546_656" maskUnits="userSpaceOnUse" x="178" y="178" width="339" height="105" fill="black">
<rect fill="white" x="178" y="178" width="339" height="105"/>
<path d="M268.04 181.5V279H241.39V193.33H249.58L198.88 249.36L198.75 240.91H283.64V260.8H179.12V241.82L233.98 181.5H268.04ZM348.163 281.08C337.069 281.08 327.406 279 319.173 274.84C310.939 270.593 304.569 264.657 300.063 257.03C295.643 249.403 293.433 240.477 293.433 230.25C293.433 220.023 295.643 211.097 300.063 203.47C304.569 195.843 310.939 189.95 319.173 185.79C327.406 181.543 337.069 179.42 348.163 179.42C359.169 179.42 368.746 181.543 376.893 185.79C385.126 189.95 391.496 195.843 396.003 203.47C400.509 211.097 402.763 220.023 402.763 230.25C402.763 240.477 400.509 249.403 396.003 257.03C391.496 264.657 385.126 270.593 376.893 274.84C368.746 279 359.169 281.08 348.163 281.08ZM348.163 259.24C356.916 259.24 363.719 256.727 368.573 251.7C373.426 246.587 375.853 239.437 375.853 230.25C375.853 220.977 373.426 213.827 368.573 208.8C363.719 203.773 356.916 201.26 348.163 201.26C339.409 201.26 332.563 203.773 327.623 208.8C322.683 213.827 320.213 220.977 320.213 230.25C320.213 239.437 322.683 246.587 327.623 251.7C332.563 256.727 339.409 259.24 348.163 259.24ZM500.237 181.5V279H473.587V193.33H481.777L431.077 249.36L430.947 240.91H515.837V260.8H411.317V241.82L466.177 181.5H500.237Z"/>
</mask>
<path d="M268.04 181.5V279H241.39V193.33H249.58L198.88 249.36L198.75 240.91H283.64V260.8H179.12V241.82L233.98 181.5H268.04ZM348.163 281.08C337.069 281.08 327.406 279 319.173 274.84C310.939 270.593 304.569 264.657 300.063 257.03C295.643 249.403 293.433 240.477 293.433 230.25C293.433 220.023 295.643 211.097 300.063 203.47C304.569 195.843 310.939 189.95 319.173 185.79C327.406 181.543 337.069 179.42 348.163 179.42C359.169 179.42 368.746 181.543 376.893 185.79C385.126 189.95 391.496 195.843 396.003 203.47C400.509 211.097 402.763 220.023 402.763 230.25C402.763 240.477 400.509 249.403 396.003 257.03C391.496 264.657 385.126 270.593 376.893 274.84C368.746 279 359.169 281.08 348.163 281.08ZM348.163 259.24C356.916 259.24 363.719 256.727 368.573 251.7C373.426 246.587 375.853 239.437 375.853 230.25C375.853 220.977 373.426 213.827 368.573 208.8C363.719 203.773 356.916 201.26 348.163 201.26C339.409 201.26 332.563 203.773 327.623 208.8C322.683 213.827 320.213 220.977 320.213 230.25C320.213 239.437 322.683 246.587 327.623 251.7C332.563 256.727 339.409 259.24 348.163 259.24ZM500.237 181.5V279H473.587V193.33H481.777L431.077 249.36L430.947 240.91H515.837V260.8H411.317V241.82L466.177 181.5H500.237Z" fill="#D9D9D9" fill-opacity="0.01" shape-rendering="crispEdges"/>
<path d="M268.04 181.5H269.04V180.5H268.04V181.5ZM268.04 279V280H269.04V279H268.04ZM241.39 279H240.39V280H241.39V279ZM241.39 193.33V192.33H240.39V193.33H241.39ZM249.58 193.33L250.322 194.001L251.834 192.33H249.58V193.33ZM198.88 249.36L197.88 249.375L197.919 251.912L199.621 250.031L198.88 249.36ZM198.75 240.91V239.91H197.734L197.75 240.925L198.75 240.91ZM283.64 240.91H284.64V239.91H283.64V240.91ZM283.64 260.8V261.8H284.64V260.8H283.64ZM179.12 260.8H178.12V261.8H179.12V260.8ZM179.12 241.82L178.38 241.147L178.12 241.433V241.82H179.12ZM233.98 181.5V180.5H233.538L233.24 180.827L233.98 181.5ZM268.04 181.5H267.04V279H268.04H269.04V181.5H268.04ZM268.04 279V278H241.39V279V280H268.04V279ZM241.39 279H242.39V193.33H241.39H240.39V279H241.39ZM241.39 193.33V194.33H249.58V193.33V192.33H241.39V193.33ZM249.58 193.33L248.839 192.659L198.139 248.689L198.88 249.36L199.621 250.031L250.322 194.001L249.58 193.33ZM198.88 249.36L199.88 249.345L199.75 240.895L198.75 240.91L197.75 240.925L197.88 249.375L198.88 249.36ZM198.75 240.91V241.91H283.64V240.91V239.91H198.75V240.91ZM283.64 240.91H282.64V260.8H283.64H284.64V240.91H283.64ZM283.64 260.8V259.8H179.12V260.8V261.8H283.64V260.8ZM179.12 260.8H180.12V241.82H179.12H178.12V260.8H179.12ZM179.12 241.82L179.86 242.493L234.72 182.173L233.98 181.5L233.24 180.827L178.38 241.147L179.12 241.82ZM233.98 181.5V182.5H268.04V181.5V180.5H233.98V181.5ZM319.173 274.84L318.714 275.729L318.722 275.733L319.173 274.84ZM300.063 257.03L299.197 257.531L299.202 257.539L300.063 257.03ZM300.063 203.47L299.202 202.961L299.197 202.969L300.063 203.47ZM319.173 185.79L319.624 186.683L319.631 186.679L319.173 185.79ZM376.893 185.79L376.43 186.677L376.442 186.683L376.893 185.79ZM396.003 257.03L395.142 256.521L395.142 256.521L396.003 257.03ZM376.893 274.84L377.347 275.731L377.351 275.729L376.893 274.84ZM368.573 251.7L369.292 252.395L369.298 252.388L368.573 251.7ZM368.573 208.8L367.853 209.495L367.853 209.495L368.573 208.8ZM327.623 208.8L328.336 209.501L328.336 209.501L327.623 208.8ZM327.623 251.7L326.903 252.395L326.909 252.401L327.623 251.7ZM348.163 281.08V280.08C337.195 280.08 327.692 278.024 319.624 273.947L319.173 274.84L318.722 275.733C327.12 279.976 336.944 282.08 348.163 282.08V281.08ZM319.173 274.84L319.631 273.951C311.557 269.787 305.33 263.978 300.924 256.521L300.063 257.03L299.202 257.539C303.809 265.335 310.322 271.4 318.714 275.729L319.173 274.84ZM300.063 257.03L300.928 256.529C296.609 249.077 294.433 240.329 294.433 230.25H293.433H292.433C292.433 240.624 294.676 249.729 299.197 257.531L300.063 257.03ZM293.433 230.25H294.433C294.433 220.171 296.609 211.423 300.928 203.971L300.063 203.47L299.197 202.969C294.676 210.771 292.433 219.876 292.433 230.25H293.433ZM300.063 203.47L300.924 203.979C305.329 196.524 311.553 190.76 319.624 186.683L319.173 185.79L318.722 184.897C310.325 189.14 303.81 195.163 299.202 202.961L300.063 203.47ZM319.173 185.79L319.631 186.679C327.697 182.518 337.198 180.42 348.163 180.42V179.42V178.42C336.941 178.42 327.115 180.568 318.714 184.901L319.173 185.79ZM348.163 179.42V180.42C359.04 180.42 368.452 182.518 376.43 186.677L376.893 185.79L377.355 184.903C369.04 180.569 359.299 178.42 348.163 178.42V179.42ZM376.893 185.79L376.442 186.683C384.512 190.76 390.736 196.524 395.142 203.979L396.003 203.47L396.864 202.961C392.256 195.163 385.74 189.14 377.344 184.897L376.893 185.79ZM396.003 203.47L395.142 203.979C399.544 211.429 401.763 220.174 401.763 230.25H402.763H403.763C403.763 219.872 401.475 210.764 396.864 202.961L396.003 203.47ZM402.763 230.25H401.763C401.763 240.326 399.544 249.071 395.142 256.521L396.003 257.03L396.864 257.539C401.475 249.736 403.763 240.628 403.763 230.25H402.763ZM396.003 257.03L395.142 256.521C390.735 263.978 384.508 269.787 376.434 273.951L376.893 274.84L377.351 275.729C385.744 271.4 392.257 265.335 396.864 257.539L396.003 257.03ZM376.893 274.84L376.438 273.949C368.458 278.024 359.043 280.08 348.163 280.08V281.08V282.08C359.296 282.08 369.034 279.976 377.347 275.731L376.893 274.84ZM348.163 259.24V260.24C357.115 260.24 364.205 257.663 369.292 252.395L368.573 251.7L367.853 251.005C363.234 255.79 356.717 258.24 348.163 258.24V259.24ZM368.573 251.7L369.298 252.388C374.376 247.038 376.853 239.613 376.853 230.25H375.853H374.853C374.853 239.261 372.476 246.135 367.847 251.012L368.573 251.7ZM375.853 230.25H376.853C376.853 220.805 374.378 213.373 369.292 208.105L368.573 208.8L367.853 209.495C372.474 214.28 374.853 221.149 374.853 230.25H375.853ZM368.573 208.8L369.292 208.105C364.205 202.837 357.115 200.26 348.163 200.26V201.26V202.26C356.717 202.26 363.234 204.71 367.853 209.495L368.573 208.8ZM348.163 201.26V200.26C339.21 200.26 332.081 202.837 326.909 208.099L327.623 208.8L328.336 209.501C333.045 204.71 339.609 202.26 348.163 202.26V201.26ZM327.623 208.8L326.909 208.099C321.733 213.366 319.213 220.8 319.213 230.25H320.213H321.213C321.213 221.153 323.632 214.287 328.336 209.501L327.623 208.8ZM320.213 230.25H319.213C319.213 239.617 321.735 247.045 326.903 252.395L327.623 251.7L328.342 251.005C323.63 246.128 321.213 239.256 321.213 230.25H320.213ZM327.623 251.7L326.909 252.401C332.081 257.663 339.21 260.24 348.163 260.24V259.24V258.24C339.609 258.24 333.045 255.79 328.336 250.999L327.623 251.7ZM500.237 181.5H501.237V180.5H500.237V181.5ZM500.237 279V280H501.237V279H500.237ZM473.587 279H472.587V280H473.587V279ZM473.587 193.33V192.33H472.587V193.33H473.587ZM481.777 193.33L482.519 194.001L484.031 192.33H481.777V193.33ZM431.077 249.36L430.077 249.375L430.116 251.912L431.819 250.031L431.077 249.36ZM430.947 240.91V239.91H429.932L429.947 240.925L430.947 240.91ZM515.837 240.91H516.837V239.91H515.837V240.91ZM515.837 260.8V261.8H516.837V260.8H515.837ZM411.317 260.8H410.317V261.8H411.317V260.8ZM411.317 241.82L410.577 241.147L410.317 241.433V241.82H411.317ZM466.177 181.5V180.5H465.735L465.437 180.827L466.177 181.5ZM500.237 181.5H499.237V279H500.237H501.237V181.5H500.237ZM500.237 279V278H473.587V279V280H500.237V279ZM473.587 279H474.587V193.33H473.587H472.587V279H473.587ZM473.587 193.33V194.33H481.777V193.33V192.33H473.587V193.33ZM481.777 193.33L481.036 192.659L430.336 248.689L431.077 249.36L431.819 250.031L482.519 194.001L481.777 193.33ZM431.077 249.36L432.077 249.345L431.947 240.895L430.947 240.91L429.947 240.925L430.077 249.375L431.077 249.36ZM430.947 240.91V241.91H515.837V240.91V239.91H430.947V240.91ZM515.837 240.91H514.837V260.8H515.837H516.837V240.91H515.837ZM515.837 260.8V259.8H411.317V260.8V261.8H515.837V260.8ZM411.317 260.8H412.317V241.82H411.317H410.317V260.8H411.317ZM411.317 241.82L412.057 242.493L466.917 182.173L466.177 181.5L465.437 180.827L410.577 241.147L411.317 241.82ZM466.177 181.5V182.5H500.237V181.5V180.5H466.177V181.5Z" fill="#14E2DE" mask="url(#path-1-outside-1_1546_656)"/>
</g>
<defs>
<filter id="filter0_d_1546_656" x="0.220123" y="0.519928" width="708.517" height="473.46" filterUnits="userSpaceOnUse" color-interpolation-filters="sRGB">
<feFlood flood-opacity="0" result="BackgroundImageFix"/>
<feColorMatrix in="SourceAlpha" type="matrix" values="0 0 0 0 0 0 0 0 0 0 0 0 0 0 0 0 0 0 127 0" result="hardAlpha"/>
<feOffset dx="7" dy="7"/>
<feGaussianBlur stdDeviation="92.45"/>
<feComposite in2="hardAlpha" operator="out"/>
<feColorMatrix type="matrix" values="0 0 0 0 0.0784314 0 0 0 0 0.886275 0 0 0 0 0.870588 0 0 0 0.72 0"/>
<feBlend mode="normal" in2="BackgroundImageFix" result="effect1_dropShadow_1546_656"/>
<feBlend mode="normal" in="SourceGraphic" in2="effect1_dropShadow_1546_656" result="shape"/>
</filter>
</defs>
</svg>
