<svg width="43" height="43" viewBox="0 0 43 43" fill="none" xmlns="http://www.w3.org/2000/svg">
<path d="M14.2645 19.3684C14.5472 19.3684 14.8183 19.4793 15.0182 19.6767C15.2181 19.8741 15.3304 20.1419 15.3304 20.4211C17.005 20.4186 18.6313 20.975 19.9456 22H22.2585C23.6782 22 24.9551 22.6105 25.8334 23.5789H29.1866C30.1941 23.5787 31.181 23.8605 32.033 24.3916C32.8849 24.9228 33.567 25.6816 34 26.58C31.4792 29.8642 27.3981 32 22.7914 32C19.8176 32 17.3022 31.3653 15.2654 30.2547C15.1905 30.4578 15.0542 30.6332 14.875 30.7571C14.6958 30.881 14.4822 30.9474 14.2634 30.9474H11.0659C10.7832 30.9474 10.5121 30.8365 10.3122 30.6391C10.1123 30.4417 10 30.1739 10 29.8947V20.4211C10 20.1419 10.1123 19.8741 10.3122 19.6767C10.5121 19.4793 10.7832 19.3684 11.0659 19.3684H14.2645ZM15.3304 22.5263V27.8126L15.3783 27.8463C17.2905 29.1726 19.7835 29.8947 22.7914 29.8947C25.9932 29.8947 28.9713 28.6779 31.1424 26.6L31.2842 26.46L31.1563 26.3547C30.6528 25.9658 30.0428 25.7348 29.4051 25.6916L29.1866 25.6842H26.9355C27.0136 26.0232 27.0534 26.374 27.0548 26.7368V27.7895H17.4621V25.6842L24.6993 25.6832L24.6631 25.6C24.4587 25.1786 24.1445 24.8185 23.7526 24.5567C23.3607 24.295 22.9054 24.141 22.4333 24.1105L22.2585 24.1053H19.1355C18.6394 23.6054 18.0474 23.2083 17.394 22.9372C16.7406 22.6661 16.0391 22.5264 15.3304 22.5263ZM13.1987 21.4737H12.1328V28.8421H13.1987V21.4737ZM28.1207 15.1579C28.9688 15.1579 29.7821 15.4906 30.3817 16.0828C30.9814 16.675 31.3183 17.4783 31.3183 18.3158C31.3183 19.1533 30.9814 19.9565 30.3817 20.5488C29.7821 21.141 28.9688 21.4737 28.1207 21.4737C27.2727 21.4737 26.4593 21.141 25.8597 20.5488C25.26 19.9565 24.9231 19.1533 24.9231 18.3158C24.9231 17.4783 25.26 16.675 25.8597 16.0828C26.4593 15.4906 27.2727 15.1579 28.1207 15.1579ZM28.1207 17.2632C27.838 17.2632 27.5669 17.3741 27.367 17.5715C27.1671 17.7689 27.0548 18.0366 27.0548 18.3158C27.0548 18.595 27.1671 18.8627 27.367 19.0601C27.5669 19.2575 27.838 19.3684 28.1207 19.3684C28.4034 19.3684 28.6745 19.2575 28.8744 19.0601C29.0743 18.8627 29.1866 18.595 29.1866 18.3158C29.1866 18.0366 29.0743 17.7689 28.8744 17.5715C28.6745 17.3741 28.4034 17.2632 28.1207 17.2632ZM20.6597 12C21.5077 12 22.321 12.3327 22.9207 12.9249C23.5204 13.5171 23.8573 14.3204 23.8573 15.1579C23.8573 15.9954 23.5204 16.7986 22.9207 17.3909C22.321 17.9831 21.5077 18.3158 20.6597 18.3158C19.8116 18.3158 18.9983 17.9831 18.3986 17.3909C17.799 16.7986 17.4621 15.9954 17.4621 15.1579C17.4621 14.3204 17.799 13.5171 18.3986 12.9249C18.9983 12.3327 19.8116 12 20.6597 12ZM20.6597 14.1053C20.377 14.1053 20.1059 14.2162 19.906 14.4136C19.7061 14.611 19.5938 14.8787 19.5938 15.1579C19.5938 15.4371 19.7061 15.7048 19.906 15.9022C20.1059 16.0996 20.377 16.2105 20.6597 16.2105C20.9424 16.2105 21.2135 16.0996 21.4134 15.9022C21.6132 15.7048 21.7255 15.4371 21.7255 15.1579C21.7255 14.8787 21.6132 14.611 21.4134 14.4136C21.2135 14.2162 20.9424 14.1053 20.6597 14.1053Z" fill="black"/>
</svg>
