<svg width="228" height="8" viewBox="0 0 228 8" fill="none" xmlns="http://www.w3.org/2000/svg">
<path d="M0 0H7L24 8H17L0 0Z" fill="#D9D9D9"/>
<path d="M12 0H19L36 8H29L12 0Z" fill="#D9D9D9"/>
<path d="M24 0H31L48 8H41L24 0Z" fill="#D9D9D9"/>
<path d="M36 0H43L60 8H53L36 0Z" fill="#D9D9D9"/>
<path d="M48 0H55L72 8H65L48 0Z" fill="#D9D9D9"/>
<path d="M60 0H67L84 8H77L60 0Z" fill="#D9D9D9"/>
<path d="M72 0H79L96 8H89L72 0Z" fill="#D9D9D9"/>
<path d="M84 0H91L108 8H101L84 0Z" fill="#D9D9D9"/>
<path d="M96 0H103L120 8H113L96 0Z" fill="#D9D9D9"/>
<path d="M108 0H115L132 8H125L108 0Z" fill="#D9D9D9"/>
<path d="M120 0H127L144 8H137L120 0Z" fill="#D9D9D9"/>
<path d="M132 0H139L156 8H149L132 0Z" fill="#D9D9D9"/>
<path d="M144 0H151L168 8H161L144 0Z" fill="#D9D9D9"/>
<path d="M156 0H163L180 8H173L156 0Z" fill="#D9D9D9"/>
<path d="M168 0H175L192 8H185L168 0Z" fill="#D9D9D9"/>
<path d="M180 0H187L204 8H197L180 0Z" fill="#D9D9D9"/>
<path d="M192 0H199L216 8H209L192 0Z" fill="#D9D9D9"/>
<path d="M204 0H211L228 8H221L204 0Z" fill="#D9D9D9"/>
</svg>
