<svg width="20" height="234" viewBox="0 0 20 234" fill="none" xmlns="http://www.w3.org/2000/svg">
<path d="M1 79.3499L19 94.1378L19 233" stroke="white" stroke-linecap="round"/>
<path d="M3 0L3 5.04954L19 17.3127V12.2632L3 0Z" fill="#D9D9D9"/>
<path d="M3 8.65637L3 13.7059L19 25.9691V20.9195L3 8.65637Z" fill="#D9D9D9"/>
<path d="M3 17.3127L3 22.3623L19 34.6254V29.5759L3 17.3127Z" fill="#D9D9D9"/>
<path d="M3 25.969L3 31.0185L19 43.2817V38.2322L3 25.969Z" fill="#D9D9D9"/>
<path d="M3 34.6254L3 39.6749L19 51.9381V46.8885L3 34.6254Z" fill="#D9D9D9"/>
<path d="M3 43.2817L3 48.3313L19 60.5944V55.5449L3 43.2817Z" fill="#D9D9D9"/>
<path d="M3 51.9381L3 56.9876L19 69.2508V64.2013L3 51.9381Z" fill="#D9D9D9"/>
<path d="M3 60.5945L3 65.644L19 77.9072V72.8576L3 60.5945Z" fill="#D9D9D9"/>
<path d="M3 69.2507L3 74.3003L19 86.5634V81.5139L3 69.2507Z" fill="#D9D9D9"/>
</svg>
