<svg width="20" height="234" viewBox="0 0 20 234" fill="none" xmlns="http://www.w3.org/2000/svg">
<path d="M19 79.3499L1 94.1378L1 233" stroke="white" stroke-linecap="round"/>
<path d="M17 0V5.04954L1 17.3127V12.2632L17 0Z" fill="#D9D9D9"/>
<path d="M17 8.65637V13.7059L1 25.9691V20.9195L17 8.65637Z" fill="#D9D9D9"/>
<path d="M17 17.3127V22.3623L1 34.6254V29.5759L17 17.3127Z" fill="#D9D9D9"/>
<path d="M17 25.969V31.0185L1 43.2817V38.2322L17 25.969Z" fill="#D9D9D9"/>
<path d="M17 34.6254V39.6749L1 51.9381V46.8885L17 34.6254Z" fill="#D9D9D9"/>
<path d="M17 43.2817V48.3313L1 60.5944V55.5449L17 43.2817Z" fill="#D9D9D9"/>
<path d="M17 51.9381V56.9876L1 69.2508V64.2013L17 51.9381Z" fill="#D9D9D9"/>
<path d="M17 60.5945V65.644L1 77.9072V72.8576L17 60.5945Z" fill="#D9D9D9"/>
<path d="M17 69.2507V74.3003L1 86.5634V81.5139L17 69.2507Z" fill="#D9D9D9"/>
</svg>
