<svg width="27" height="26" viewBox="0 0 27 26" fill="none" xmlns="http://www.w3.org/2000/svg">
<path d="M21.408 5.824C19.9672 5.15717 18.4072 4.67319 16.7822 4.39355C16.7536 4.39396 16.7264 4.40556 16.7064 4.42582C16.5114 4.78074 16.2839 5.24322 16.1322 5.59814C14.4086 5.34017 12.6558 5.34017 10.9322 5.59814C10.7805 5.23246 10.553 4.78074 10.3472 4.42582C10.3364 4.40431 10.3039 4.39355 10.2714 4.39355C8.64636 4.67319 7.09719 5.15717 5.64552 5.824C5.63469 5.824 5.62386 5.83475 5.61302 5.84551C2.66636 10.2229 1.85386 14.4819 2.25469 18.698C2.25469 18.7195 2.26552 18.741 2.28719 18.7517C4.23719 20.1714 6.11136 21.0318 7.96386 21.6019C7.99636 21.6126 8.02886 21.6019 8.03969 21.5804C8.47302 20.9888 8.86302 20.365 9.19886 19.709C9.22052 19.6659 9.19886 19.6229 9.15552 19.6122C8.53802 19.3755 7.95302 19.0959 7.37886 18.7733C7.33552 18.7517 7.33552 18.6872 7.36802 18.6549C7.48719 18.5689 7.60636 18.4721 7.72552 18.3861C7.74719 18.3646 7.77969 18.3646 7.80136 18.3753C11.528 20.0639 15.5472 20.0639 19.2305 18.3753C19.2522 18.3646 19.2847 18.3646 19.3064 18.3861C19.4255 18.4829 19.5447 18.5689 19.6639 18.6657C19.7072 18.698 19.7072 18.7625 19.653 18.784C19.0897 19.1174 18.4939 19.3863 17.8764 19.6229C17.833 19.6337 17.8222 19.6874 17.833 19.7197C18.1797 20.3758 18.5697 20.9996 18.9922 21.5911C19.0247 21.6019 19.0572 21.6126 19.0897 21.6019C20.953 21.0318 22.8272 20.1714 24.7772 18.7517C24.7989 18.741 24.8097 18.7195 24.8097 18.698C25.2864 13.8259 24.0189 9.59907 21.4514 5.84551C21.4405 5.83475 21.4297 5.824 21.408 5.824ZM9.76219 16.1275C8.64636 16.1275 7.71469 15.1057 7.71469 13.8474C7.71469 12.589 8.62469 11.5673 9.76219 11.5673C10.9105 11.5673 11.8205 12.5998 11.8097 13.8474C11.8097 15.1057 10.8997 16.1275 9.76219 16.1275ZM17.313 16.1275C16.1972 16.1275 15.2655 15.1057 15.2655 13.8474C15.2655 12.589 16.1755 11.5673 17.313 11.5673C18.4614 11.5673 19.3714 12.5998 19.3605 13.8474C19.3605 15.1057 18.4614 16.1275 17.313 16.1275Z" fill="white"/>
</svg>
