<svg width="26" height="26" viewBox="0 0 26 26" fill="none" xmlns="http://www.w3.org/2000/svg">
<path d="M8.83301 6.5C10.4906 6.5 12.0803 7.18482 13.2524 8.40381C14.4245 9.62279 15.083 11.2761 15.083 13C15.083 14.7239 14.4245 16.3772 13.2524 17.5962C12.0803 18.8152 10.4906 19.5 8.83301 19.5C7.1754 19.5 5.58569 18.8152 4.41359 17.5962C3.24149 16.3772 2.58301 14.7239 2.58301 13C2.58301 11.2761 3.24149 9.62279 4.41359 8.40381C5.58569 7.18482 7.1754 6.5 8.83301 6.5ZM18.208 7.58333C19.7705 7.58333 20.8122 10.0089 20.8122 13C20.8122 15.9911 19.7705 18.4167 18.208 18.4167C16.6455 18.4167 15.6038 15.9911 15.6038 13C15.6038 10.0089 16.6455 7.58333 18.208 7.58333ZM22.3747 8.125C22.7705 8.125 23.1163 9.02092 23.2913 10.5582L23.3403 11.0381L23.3601 11.2927L23.3913 11.8278L23.4018 12.1084L23.4143 12.6945L23.4163 13L23.4143 13.3055L23.4018 13.8916L23.3913 14.1733L23.3601 14.7073L23.3393 14.9619L23.2924 15.4418C23.1163 16.9802 22.7715 17.875 22.3747 17.875C21.9788 17.875 21.633 16.9791 21.458 15.4418L21.409 14.9619L21.3893 14.7073L21.358 14.1722L21.3476 13.8916L21.3351 13.3055V12.6945L21.3476 12.1084L21.358 11.8267L21.3893 11.2927L21.4101 11.0381L21.457 10.5582C21.633 9.01983 21.9778 8.125 22.3747 8.125Z" fill="white"/>
</svg>
