<svg width="58" height="44" viewBox="0 0 58 44" fill="none" xmlns="http://www.w3.org/2000/svg">
<path d="M48.771 4.05999C45.1689 2.39293 41.269 1.18297 37.2065 0.483887C37.135 0.484897 37.0669 0.51389 37.0169 0.564551C36.5294 1.45186 35.9606 2.60804 35.5815 3.49534C31.2725 2.85044 26.8904 2.85044 22.5815 3.49534C22.2023 2.58115 21.6335 1.45186 21.119 0.564551C21.0919 0.510775 21.0106 0.483887 20.9294 0.483887C16.8669 1.18297 12.994 2.39293 9.36479 4.05999C9.3377 4.05999 9.31062 4.08688 9.28354 4.11377C1.91687 15.0572 -0.11438 25.7048 0.887704 36.2449C0.887704 36.2987 0.914787 36.3525 0.968953 36.3794C5.84395 39.9286 10.5294 42.0796 15.1606 43.5047C15.2419 43.5316 15.3231 43.5047 15.3502 43.4509C16.4335 41.9721 17.4085 40.4126 18.2481 38.7724C18.3023 38.6648 18.2481 38.5573 18.1398 38.5304C16.596 37.9389 15.1335 37.2398 13.6981 36.4331C13.5898 36.3794 13.5898 36.218 13.671 36.1374C13.969 35.9223 14.2669 35.6803 14.5648 35.4652C14.619 35.4114 14.7002 35.4114 14.7544 35.4383C24.071 39.6597 34.119 39.6597 43.3273 35.4383C43.3815 35.4114 43.4627 35.4114 43.5169 35.4652C43.8148 35.7072 44.1127 35.9223 44.4106 36.1643C44.5189 36.2449 44.5189 36.4062 44.3835 36.46C42.9752 37.2936 41.4856 37.9658 39.9419 38.5573C39.8335 38.5842 39.8065 38.7186 39.8335 38.7993C40.7002 40.4394 41.6752 41.999 42.7315 43.4778C42.8127 43.5047 42.894 43.5316 42.9752 43.5047C47.6335 42.0796 52.3189 39.9286 57.1939 36.3794C57.2481 36.3525 57.2752 36.2987 57.2752 36.2449C58.4669 24.0647 55.2981 13.4977 48.8794 4.11377C48.8523 4.08688 48.8252 4.05999 48.771 4.05999ZM19.6565 29.8187C16.8669 29.8187 14.5377 27.2643 14.5377 24.1184C14.5377 20.9725 16.8127 18.4182 19.6565 18.4182C22.5273 18.4182 24.8023 20.9994 24.7752 24.1184C24.7752 27.2643 22.5002 29.8187 19.6565 29.8187ZM38.5335 29.8187C35.744 29.8187 33.4148 27.2643 33.4148 24.1184C33.4148 20.9725 35.6898 18.4182 38.5335 18.4182C41.4044 18.4182 43.6794 20.9994 43.6523 24.1184C43.6523 27.2643 41.4044 29.8187 38.5335 29.8187Z" fill="white"/>
</svg>
