<svg width="65" height="64" viewBox="0 0 65 64" fill="none" xmlns="http://www.w3.org/2000/svg">
<path d="M21.8334 16C26.0768 16 30.1465 17.6857 33.1471 20.6863C36.1477 23.6869 37.8334 27.7565 37.8334 32C37.8334 36.2435 36.1477 40.3131 33.1471 43.3137C30.1465 46.3143 26.0768 48 21.8334 48C17.5899 48 13.5202 46.3143 10.5197 43.3137C7.51908 40.3131 5.83337 36.2435 5.83337 32C5.83337 27.7565 7.51908 23.6869 10.5197 20.6863C13.5202 17.6857 17.5899 16 21.8334 16ZM45.8334 18.6667C49.8334 18.6667 52.5 24.6373 52.5 32C52.5 39.3627 49.8334 45.3333 45.8334 45.3333C41.8334 45.3333 39.1667 39.3627 39.1667 32C39.1667 24.6373 41.8334 18.6667 45.8334 18.6667ZM56.5 20C57.5134 20 58.3987 22.2053 58.8467 25.9893L58.972 27.1707L59.0227 27.7973L59.1027 29.1147L59.1294 29.8053L59.1614 31.248L59.1667 32L59.1614 32.752L59.1294 34.1947L59.1027 34.888L59.0227 36.2027L58.9694 36.8293L58.8494 38.0107C58.3987 41.7973 57.516 44 56.5 44C55.4867 44 54.6014 41.7947 54.1534 38.0107L54.028 36.8293L53.9774 36.2027L53.8974 34.8853L53.8707 34.1947L53.8387 32.752V31.248L53.8707 29.8053L53.8974 29.112L53.9774 27.7973L54.0307 27.1707L54.1507 25.9893C54.6014 22.2027 55.484 20 56.5 20Z" fill="white"/>
</svg>
