<svg width="1280" height="123" viewBox="0 0 1280 123" fill="none" xmlns="http://www.w3.org/2000/svg">
<path d="M643.5 2C848.775 2 1034.59 8.88236 1169.07 20.0059C1236.32 25.5685 1290.67 32.1878 1328.19 39.5244C1346.96 43.1958 1361.42 47.0287 1371.15 50.96C1376.02 52.9295 1379.58 54.8777 1381.9 56.7627C1384.24 58.67 1385 60.2564 1385 61.5C1385 62.7436 1384.24 64.33 1381.9 66.2373C1379.58 68.1223 1376.02 70.0705 1371.15 72.04C1361.42 75.9713 1346.96 79.8042 1328.19 83.4756C1290.67 90.8122 1236.32 97.4315 1169.07 102.994C1034.59 114.118 848.775 121 643.5 121C438.225 121 252.407 114.118 117.931 102.994C50.682 97.4315 -3.67363 90.8122 -41.1885 83.4756C-59.9616 79.8042 -74.4202 75.9713 -84.1455 72.04C-89.0179 70.0705 -92.5841 68.1223 -94.8984 66.2373C-97.24 64.33 -98 62.7436 -98 61.5C-98 60.2564 -97.24 58.67 -94.8984 56.7627C-92.5841 54.8777 -89.0179 52.9295 -84.1455 50.96C-74.4202 47.0287 -59.9616 43.1958 -41.1885 39.5244C-3.67363 32.1878 50.682 25.5685 117.931 20.0059C252.407 8.88236 438.225 2 643.5 2Z" fill="#111111" stroke="url(#paint0_linear_1014_612)" stroke-width="4"/>
<defs>
<linearGradient id="paint0_linear_1014_612" x1="643.822" y1="123" x2="643.11" y2="0.000403589" gradientUnits="userSpaceOnUse">
<stop offset="0.842751" stop-color="#111111"/>
<stop offset="1" stop-color="#0EDDDA"/>
</linearGradient>
</defs>
</svg>
